<svg xmlns="http://www.w3.org/2000/svg" xmlns:xlink="http://www.w3.org/1999/xlink" width="1760" height="1360"><g transform="translate(0 0)"><path d="M0 0h1760v1360H0z" fill="#fff"/><path d="M32 37c0-2.76 2.24-5 5-5h838c2.76 0 5 2.24 5 5v38c0 2.76-2.24 5-5 5H37c-2.76 0-5-2.24-5-5z" fill="none"/><use xlink:href="#a" transform="matrix(1,0,0,1,32,32) translate(0 31.11111111111111)"/><path d="M31.33 80H1728" stroke="#999" stroke-width="2" fill="none"/><path d="M1040 37c0-2.76 2.24-5 5-5h678c2.76 0 5 2.24 5 5v38c0 2.76-2.24 5-5 5h-678c-2.76 0-5-2.24-5-5z" fill="none"/><use xlink:href="#b" transform="matrix(1,0,0,1,1040,32) translate(352.8148148148182 28.4444444444444)"/><use xlink:href="#c" transform="matrix(1,0,0,1,1040,32) translate(502.01234567901423 28.4444444444444)"/><use xlink:href="#d" transform="matrix(1,0,0,1,1040,32) translate(526.2716049382732 28.4444444444444)"/><path d="M660 724.75c0-2.76 2.24-5 5-5h330c2.76 0 5 2.24 5 5v224.5c0 2.76-2.24 5-5 5H665c-2.76 0-5-2.24-5-5z" fill="#fff"/><path d="M660 791.75h340v32H660zM660 855.75h340v32H660zM660 919.75h340v34.5H660z" fill="#e6e6e6"/><path d="M660 724.75c0-2.76 2.24-5 5-5h330c2.76 0 5 2.24 5 5v224.5c0 2.76-2.24 5-5 5H665c-2.76 0-5-2.24-5-5zM660 759.75h340" stroke="#666" stroke-width="2" fill="none"/><use xlink:href="#e" transform="matrix(1,0,0,1,670,719.75) translate(113.11728395061728 24.444444444444443)"/><use xlink:href="#f" transform="matrix(1,0,0,1,665,762.25) translate(0 17.944444444444443)"/><use xlink:href="#g" transform="matrix(1,0,0,1,665,794.25) translate(0 17.944444444444443)"/><use xlink:href="#h" transform="matrix(1,0,0,1,665,826.25) translate(0 17.944444444444443)"/><use xlink:href="#i" transform="matrix(1,0,0,1,665,858.25) translate(0 17.944444444444443)"/><use xlink:href="#j" transform="matrix(1,0,0,1,665,890.25) translate(0 17.944444444444443)"/><use xlink:href="#k" transform="matrix(1,0,0,1,665,922.25) translate(0 17.944444444444443)"/><path d="M1280 766.75c0-2.76 2.24-5 5-5h190c2.76 0 5 2.24 5 5v116.5c0 2.76-2.24 5-5 5h-190c-2.76 0-5-2.24-5-5z" fill="#fff"/><path d="M1280 766.75c0-2.76 2.24-5 5-5h190c2.76 0 5 2.24 5 5v116.5c0 2.76-2.24 5-5 5h-190c-2.76 0-5-2.24-5-5zM1280 801.75h200" stroke="#666" stroke-width="2" fill="none"/><use xlink:href="#l" transform="matrix(1,0,0,1,1290,761.75) translate(42.55 23.6)"/><use xlink:href="#m" transform="matrix(1,0,0,1,1285,804.25) translate(0 15.1)"/><use xlink:href="#n" transform="matrix(1,0,0,1,1285,832.25) translate(0 15.1)"/><use xlink:href="#o" transform="matrix(1,0,0,1,1285,860.25) translate(0 15.1)"/><path d="M660 345c0-2.76 2.24-5 5-5h190c2.76 0 5 2.24 5 5v88.5c0 2.76-2.24 5-5 5H665c-2.76 0-5-2.24-5-5z" fill="#fff"/><path d="M660 345c0-2.76 2.24-5 5-5h190c2.76 0 5 2.24 5 5v88.5c0 2.76-2.24 5-5 5H665c-2.76 0-5-2.24-5-5zM660 380h200" stroke="#666" stroke-width="2" fill="none"/><use xlink:href="#p" transform="matrix(1,0,0,1,670,340) translate(53.025 23.6)"/><use xlink:href="#q" transform="matrix(1,0,0,1,665,382.5) translate(0 15.1)"/><use xlink:href="#p" transform="matrix(1,0,0,1,665,410.5) translate(0 15.1)"/><path d="M1280 816.84h-135c-2.76 0-5 2.24-5 5v16.92c0 2.77-2.24 5-5 5h-135" stroke="#999" stroke-width="2" fill="none"/><path d="M1280 806.84v1.12l-17.76 8.88 17.76 8.88v1.12l-.45.9-21.8-10.9 21.8-10.9z" fill="#999"/><path d="M1261 826.84h-2v-20h2zM1022.24 843.76l-21.8 10.9-.44-.9v-1.1l17.76-8.9-17.76-8.88v-1.12l.45-.9z" fill="#999"/><path fill="#fff" d="M1116.78 819.5h46.46v21.6h-46.46z"/><use xlink:href="#r" transform="matrix(1,0,0,1,1116.775,819.5015663771712) translate(0 14.4)"/><use xlink:href="#s" transform="matrix(1,0,0,1,1116.775,819.5015663771712) translate(15 14.4)"/><use xlink:href="#t" transform="matrix(1,0,0,1,1116.775,819.5015663771712) translate(36.45 14.4)"/><path d="M660 395.4h-35c-2.76 0-5 2.24-5 5v336.9c0 2.76 2.24 5 5 5h35" stroke="#999" stroke-width="2" fill="none"/><path d="M660 385.4v1.12l-17.76 8.9 17.76 8.87v1.1l-.45.9-21.8-10.9 21.8-10.9z" fill="#999"/><path d="M641 405.4h-2v-20h2zM641 752.3h-2v-20h2z" fill="#999"/><path fill="#fff" d="M596.77 616.2h46.46v21.6h-46.46z"/><use xlink:href="#u" transform="matrix(1,0,0,1,596.775,616.2074235249952) translate(0 14.4)"/><use xlink:href="#s" transform="matrix(1,0,0,1,596.775,616.2074235249952) translate(15 14.4)"/><use xlink:href="#t" transform="matrix(1,0,0,1,596.775,616.2074235249952) translate(36.45 14.4)"/><path d="M860 424.14h175c2.76 0 5 2.23 5 5V737.3c0 2.76-2.24 5-5 5h-35" stroke="#999" stroke-width="2" fill="none"/><path d="M871 434.14h-2v-20h2zM881 434.14h-2v-20h2zM1011 752.3h-2v-20h2zM1021 752.3h-2v-20h2z" fill="#999"/><path fill="#fff" d="M1016.77 502.42h46.46v21.6h-46.46z"/><use xlink:href="#u" transform="matrix(1,0,0,1,1016.775,502.4167467948718) translate(0 14.4)"/><use xlink:href="#s" transform="matrix(1,0,0,1,1016.775,502.4167467948718) translate(15 14.4)"/><use xlink:href="#v" transform="matrix(1,0,0,1,1016.775,502.4167467948718) translate(36.45 14.4)"/><path d="M280 745c0-2.76 2.24-5 5-5h190c2.76 0 5 2.24 5 5v60.5c0 2.76-2.24 5-5 5H285c-2.76 0-5-2.24-5-5z" fill="#fff"/><path d="M280 745c0-2.76 2.24-5 5-5h190c2.76 0 5 2.24 5 5v60.5c0 2.76-2.24 5-5 5H285c-2.76 0-5-2.24-5-5zM280 780h200" stroke="#666" stroke-width="2" fill="none"/><g><use xlink:href="#w" transform="matrix(1,0,0,1,290,740) translate(72.875 23.6)"/></g><g><use xlink:href="#x" transform="matrix(1,0,0,1,285,782.5) translate(0 15.1)"/></g><path d="M660 812.2h-85c-2.76 0-5-2.24-5-5V801c0-2.78-2.24-5-5-5h-85" stroke="#999" stroke-width="2" fill="none"/><path d="M660 802.2v1.12l-17.76 8.88 17.76 8.88v1.12l-.45.9-21.8-10.9 21.8-10.9zM501 806h-2v-20h2z" fill="#999"/><path fill="#fff" d="M546.77 793.3h46.46v21.6h-46.46z"/><g><use xlink:href="#u" transform="matrix(1,0,0,1,546.775,793.2912047511313) translate(0 14.4)"/><use xlink:href="#y" transform="matrix(1,0,0,1,546.775,793.2912047511313) translate(15 14.4)"/><use xlink:href="#t" transform="matrix(1,0,0,1,546.775,793.2912047511313) translate(36.45 14.4)"/></g><defs><path fill="#999" d="M24-248c93 1 206-16 204 79-1 75-69 88-152 82V0H24v-248zm52 121c47 0 100 7 100-41 0-47-54-39-100-39v80" id="z"/><path fill="#999" d="M140-251c80 0 125 45 125 126S219 4 139 4C58 4 15-44 15-125s44-126 125-126zm-1 214c52 0 73-35 73-88 0-50-21-86-72-86-52 0-73 35-73 86s22 88 72 88" id="A"/><path fill="#999" d="M195 0l-88-114-31 24V0H24v-248h52v113l112-113h60L142-143 257 0h-62" id="B"/><path fill="#999" d="M24 0v-248h195v40H76v63h132v40H76v65h150V0H24" id="C"/><path fill="#999" d="M24-248c120-7 223 5 221 122C244-46 201 0 124 0H24v-248zM76-40c74 7 117-18 117-86 0-67-45-88-117-82v168" id="D"/><path fill="#999" d="M182 0l-62-99L58 0H3l86-130-79-118h55l55 88 55-88h55l-75 118L237 0h-55" id="E"/><path fill="#999" d="M240-174c0 40-23 61-54 70L253 0h-59l-57-94H76V0H24v-248c93 4 217-23 216 74zM76-134c48-2 112 12 112-38 0-48-66-32-112-35v73" id="F"/><g id="a"><use transform="matrix(0.09876543209876544,0,0,0.09876543209876544,0,0)" xlink:href="#z"/><use transform="matrix(0.09876543209876544,0,0,0.09876543209876544,23.703703703703706,0)" xlink:href="#A"/><use transform="matrix(0.09876543209876544,0,0,0.09876543209876544,51.35802469135803,0)" xlink:href="#B"/><use transform="matrix(0.09876543209876544,0,0,0.09876543209876544,76.93827160493828,0)" xlink:href="#C"/><use transform="matrix(0.09876543209876544,0,0,0.09876543209876544,100.64197530864199,0)" xlink:href="#D"/><use transform="matrix(0.09876543209876544,0,0,0.09876543209876544,126.22222222222223,0)" xlink:href="#C"/><use transform="matrix(0.09876543209876544,0,0,0.09876543209876544,149.92592592592595,0)" xlink:href="#E"/><use transform="matrix(0.09876543209876544,0,0,0.09876543209876544,183.50617283950618,0)" xlink:href="#D"/><use transform="matrix(0.09876543209876544,0,0,0.09876543209876544,209.08641975308643,0)" xlink:href="#C"/><use transform="matrix(0.09876543209876544,0,0,0.09876543209876544,232.79012345679016,0)" xlink:href="#F"/></g><path fill="#999" d="M205 0l-28-72H64L36 0H1l101-248h38L239 0h-34zm-38-99l-47-123c-12 45-31 82-46 123h93" id="G"/><path fill="#999" d="M114-163C36-179 61-72 57 0H25l-1-190h30c1 12-1 29 2 39 6-27 23-49 58-41v29" id="H"/><path fill="#999" d="M24-231v-30h32v30H24zM24 0v-190h32V0H24" id="I"/><path fill="#999" d="M100-194c63 0 86 42 84 106H49c0 40 14 67 53 68 26 1 43-12 49-29l28 8c-11 28-37 45-77 45C44 4 14-33 15-96c1-61 26-98 85-98zm52 81c6-60-76-77-97-28-3 7-6 17-6 28h103" id="J"/><path fill="#999" d="M24 0v-261h32V0H24" id="K"/><path fill="#999" d="M84 4C-5 8 30-112 23-190h32v120c0 31 7 50 39 49 72-2 45-101 50-169h31l1 190h-30c-1-10 1-25-2-33-11 22-28 36-60 37" id="L"/><path fill="#999" d="M177-190C167-65 218 103 67 71c-23-6-38-20-44-43l32-5c15 47 100 32 89-28v-30C133-14 115 1 83 1 29 1 15-40 15-95c0-56 16-97 71-98 29-1 48 16 59 35 1-10 0-23 2-32h30zM94-22c36 0 50-32 50-73 0-42-14-75-50-75-39 0-46 34-46 75s6 73 46 73" id="M"/><path fill="#999" d="M135-143c-3-34-86-38-87 0 15 53 115 12 119 90S17 21 10-45l28-5c4 36 97 45 98 0-10-56-113-15-118-90-4-57 82-63 122-42 12 7 21 19 24 35" id="N"/><path fill="#999" d="M59-47c-2 24 18 29 38 22v24C64 9 27 4 27-40v-127H5v-23h24l9-43h21v43h35v23H59v120" id="O"/><path fill="#999" d="M100-194c62-1 85 37 85 99 1 63-27 99-86 99S16-35 15-95c0-66 28-99 85-99zM99-20c44 1 53-31 53-75 0-43-8-75-51-75s-53 32-53 75 10 74 51 75" id="P"/><g id="b"><use transform="matrix(0.06172839506172778,0,0,0.06172839506172778,0,0)" xlink:href="#G"/><use transform="matrix(0.06172839506172778,0,0,0.06172839506172778,14.814814814814667,0)" xlink:href="#H"/><use transform="matrix(0.06172839506172778,0,0,0.06172839506172778,22.160493827160273,0)" xlink:href="#I"/><use transform="matrix(0.06172839506172778,0,0,0.06172839506172778,27.037037037036768,0)" xlink:href="#J"/><use transform="matrix(0.06172839506172778,0,0,0.06172839506172778,39.382716049382324,0)" xlink:href="#K"/><use transform="matrix(0.06172839506172778,0,0,0.06172839506172778,49.19753086419704,0)" xlink:href="#G"/><use transform="matrix(0.06172839506172778,0,0,0.06172839506172778,64.0123456790117,0)" xlink:href="#L"/><use transform="matrix(0.06172839506172778,0,0,0.06172839506172778,76.35802469135726,0)" xlink:href="#M"/><use transform="matrix(0.06172839506172778,0,0,0.06172839506172778,88.70370370370281,0)" xlink:href="#L"/><use transform="matrix(0.06172839506172778,0,0,0.06172839506172778,101.04938271604837,0)" xlink:href="#N"/><use transform="matrix(0.06172839506172778,0,0,0.06172839506172778,112.16049382715937,0)" xlink:href="#O"/><use transform="matrix(0.06172839506172778,0,0,0.06172839506172778,118.33333333333215,0)" xlink:href="#P"/></g><path fill="#999" d="M32 76v-337h29V76H32" id="Q"/><use transform="matrix(0.06172839506172778,0,0,0.06172839506172778,0,0)" xlink:href="#Q" id="c"/><path fill="#999" d="M101-251c82-7 93 87 43 132L82-64C71-53 59-42 53-27h129V0H18c2-99 128-94 128-182 0-28-16-43-45-43s-46 15-49 41l-32-3c6-41 34-60 81-64" id="R"/><path fill="#999" d="M126-127c33 6 58 20 58 59 0 88-139 92-164 29-3-8-5-16-6-25l32-3c6 27 21 44 54 44 32 0 52-15 52-46 0-38-36-46-79-43v-28c39 1 72-4 72-42 0-27-17-43-46-43-28 0-47 15-49 41l-32-3c6-42 35-63 81-64 48-1 79 21 79 65 0 36-21 52-52 59" id="S"/><path fill="#999" d="M68-38c1 34 0 65-14 84H32c9-13 17-26 17-46H33v-38h35" id="T"/><path fill="#999" d="M101-251c68 0 85 55 85 127S166 4 100 4C33 4 14-52 14-124c0-73 17-127 87-127zm-1 229c47 0 54-49 54-102s-4-102-53-102c-51 0-55 48-55 102 0 53 5 102 54 102" id="U"/><path fill="#999" d="M27 0v-27h64v-190l-56 39v-29l58-41h29v221h61V0H27" id="V"/><path fill="#999" d="M110-160c48 1 74 30 74 79 0 53-28 85-80 85-65 0-83-55-86-122-5-90 50-162 133-122 14 7 22 21 27 39l-31 6c-5-40-67-38-82-6-9 19-15 44-15 74 11-20 30-34 60-33zm-7 138c34 0 49-23 49-58s-16-56-50-56c-29 0-50 16-49 49 1 36 15 65 50 65" id="W"/><g id="d"><use transform="matrix(0.06172839506172778,0,0,0.06172839506172778,0,0)" xlink:href="#G"/><use transform="matrix(0.06172839506172778,0,0,0.06172839506172778,14.814814814814667,0)" xlink:href="#L"/><use transform="matrix(0.06172839506172778,0,0,0.06172839506172778,27.160493827160224,0)" xlink:href="#M"/><use transform="matrix(0.06172839506172778,0,0,0.06172839506172778,39.50617283950578,0)" xlink:href="#L"/><use transform="matrix(0.06172839506172778,0,0,0.06172839506172778,51.851851851851336,0)" xlink:href="#N"/><use transform="matrix(0.06172839506172778,0,0,0.06172839506172778,62.96296296296234,0)" xlink:href="#O"/><use transform="matrix(0.06172839506172778,0,0,0.06172839506172778,75.30864197530789,0)" xlink:href="#R"/><use transform="matrix(0.06172839506172778,0,0,0.06172839506172778,87.65432098765345,0)" xlink:href="#S"/><use transform="matrix(0.06172839506172778,0,0,0.06172839506172778,99.999999999999,0)" xlink:href="#T"/><use transform="matrix(0.06172839506172778,0,0,0.06172839506172778,112.34567901234456,0)" xlink:href="#R"/><use transform="matrix(0.06172839506172778,0,0,0.06172839506172778,124.69135802469012,0)" xlink:href="#U"/><use transform="matrix(0.06172839506172778,0,0,0.06172839506172778,137.03703703703567,0)" xlink:href="#V"/><use transform="matrix(0.06172839506172778,0,0,0.06172839506172778,149.38271604938123,0)" xlink:href="#W"/></g><path fill="#333" d="M30-248c87 1 191-15 191 75 0 78-77 80-158 76V0H30v-248zm33 125c57 0 124 11 124-50 0-59-68-47-124-48v98" id="X"/><path fill="#333" d="M100-194c62-1 85 37 85 99 1 63-27 99-86 99S16-35 15-95c0-66 28-99 85-99zM99-20c44 1 53-31 53-75 0-43-8-75-51-75s-53 32-53 75 10 74 51 75" id="Y"/><path fill="#333" d="M143 0L79-87 56-68V0H24v-261h32v163l83-92h37l-77 82L181 0h-38" id="Z"/><path fill="#333" d="M100-194c63 0 86 42 84 106H49c0 40 14 67 53 68 26 1 43-12 49-29l28 8c-11 28-37 45-77 45C44 4 14-33 15-96c1-61 26-98 85-98zm52 81c6-60-76-77-97-28-3 7-6 17-6 28h103" id="aa"/><path fill="#333" d="M210-169c-67 3-38 105-44 169h-31v-121c0-29-5-50-35-48C34-165 62-65 56 0H25l-1-190h30c1 10-1 24 2 32 10-44 99-50 107 0 11-21 27-35 58-36 85-2 47 119 55 194h-31v-121c0-29-5-49-35-48" id="ab"/><path fill="#333" d="M117-194c89-4 53 116 60 194h-32v-121c0-31-8-49-39-48C34-167 62-67 57 0H25l-1-190h30c1 10-1 24 2 32 11-22 29-35 61-36" id="ac"/><g id="e"><use transform="matrix(0.06172839506172839,0,0,0.06172839506172839,0,0)" xlink:href="#X"/><use transform="matrix(0.06172839506172839,0,0,0.06172839506172839,14.814814814814813,0)" xlink:href="#Y"/><use transform="matrix(0.06172839506172839,0,0,0.06172839506172839,27.160493827160494,0)" xlink:href="#Z"/><use transform="matrix(0.06172839506172839,0,0,0.06172839506172839,38.27160493827161,0)" xlink:href="#aa"/><use transform="matrix(0.06172839506172839,0,0,0.06172839506172839,50.617283950617285,0)" xlink:href="#ab"/><use transform="matrix(0.06172839506172839,0,0,0.06172839506172839,69.07407407407408,0)" xlink:href="#Y"/><use transform="matrix(0.06172839506172839,0,0,0.06172839506172839,81.41975308641976,0)" xlink:href="#ac"/></g><path fill="#333" d="M190 0L58-211 59 0H30v-248h39L202-35l-2-213h31V0h-41" id="ad"/><g id="f"><use transform="matrix(0.06172839506172839,0,0,0.06172839506172839,0,0)" xlink:href="#ad"/><use transform="matrix(0.06172839506172839,0,0,0.06172839506172839,15.987654320987653,0)" xlink:href="#Y"/><use transform="matrix(0.06172839506172839,0,0,0.06172839506172839,28.333333333333332,0)" xlink:href="#ab"/><use transform="matrix(0.06172839506172839,0,0,0.06172839506172839,46.79012345679012,0)" xlink:href="#aa"/></g><path fill="#333" d="M127-220V0H93v-220H8v-28h204v28h-85" id="ae"/><path fill="#333" d="M24-231v-30h32v30H24zM24 0v-190h32V0H24" id="af"/><path fill="#333" d="M115-194c55 1 70 41 70 98S169 2 115 4C84 4 66-9 55-30l1 105H24l-1-265h31l2 30c10-21 28-34 59-34zm-8 174c40 0 45-34 45-75s-6-73-45-74c-42 0-51 32-51 76 0 43 10 73 51 73" id="ag"/><g id="g"><use transform="matrix(0.06172839506172839,0,0,0.06172839506172839,0,0)" xlink:href="#ae"/><use transform="matrix(0.06172839506172839,0,0,0.06172839506172839,12.716049382716047,0)" xlink:href="#af"/><use transform="matrix(0.06172839506172839,0,0,0.06172839506172839,17.592592592592588,0)" xlink:href="#ag"/><use transform="matrix(0.06172839506172839,0,0,0.06172839506172839,29.938271604938265,0)" xlink:href="#Y"/></g><path fill="#333" d="M30 0v-248h33v221h125V0H30" id="ah"/><path fill="#333" d="M96-169c-40 0-48 33-48 73s9 75 48 75c24 0 41-14 43-38l32 2c-6 37-31 61-74 61-59 0-76-41-82-99-10-93 101-131 147-64 4 7 5 14 7 22l-32 3c-4-21-16-35-41-35" id="ai"/><path fill="#333" d="M141-36C126-15 110 5 73 4 37 3 15-17 15-53c-1-64 63-63 125-63 3-35-9-54-41-54-24 1-41 7-42 31l-33-3c5-37 33-52 76-52 45 0 72 20 72 64v82c-1 20 7 32 28 27v20c-31 9-61-2-59-35zM48-53c0 20 12 33 32 33 41-3 63-29 60-74-43 2-92-5-92 41" id="aj"/><path fill="#333" d="M24 0v-261h32V0H24" id="ak"/><g id="h"><use transform="matrix(0.06172839506172839,0,0,0.06172839506172839,0,0)" xlink:href="#ah"/><use transform="matrix(0.06172839506172839,0,0,0.06172839506172839,12.345679012345679,0)" xlink:href="#Y"/><use transform="matrix(0.06172839506172839,0,0,0.06172839506172839,24.691358024691358,0)" xlink:href="#ai"/><use transform="matrix(0.06172839506172839,0,0,0.06172839506172839,35.80246913580247,0)" xlink:href="#aj"/><use transform="matrix(0.06172839506172839,0,0,0.06172839506172839,48.148148148148145,0)" xlink:href="#ak"/></g><path fill="#333" d="M135-143c-3-34-86-38-87 0 15 53 115 12 119 90S17 21 10-45l28-5c4 36 97 45 98 0-10-56-113-15-118-90-4-57 82-63 122-42 12 7 21 19 24 35" id="al"/><g id="i"><use transform="matrix(0.06172839506172839,0,0,0.06172839506172839,0,0)" xlink:href="#X"/><use transform="matrix(0.06172839506172839,0,0,0.06172839506172839,14.814814814814813,0)" xlink:href="#aa"/><use transform="matrix(0.06172839506172839,0,0,0.06172839506172839,27.160493827160494,0)" xlink:href="#al"/><use transform="matrix(0.06172839506172839,0,0,0.06172839506172839,38.27160493827161,0)" xlink:href="#Y"/></g><path fill="#333" d="M205 0l-28-72H64L36 0H1l101-248h38L239 0h-34zm-38-99l-47-123c-12 45-31 82-46 123h93" id="am"/><path fill="#333" d="M59-47c-2 24 18 29 38 22v24C64 9 27 4 27-40v-127H5v-23h24l9-43h21v43h35v23H59v120" id="an"/><path fill="#333" d="M145-31C134-9 116 4 85 4 32 4 16-35 15-94c0-59 17-99 70-100 32-1 48 14 60 33 0-11-1-24 2-32h30l-1 268h-32zM93-21c41 0 51-33 51-76s-8-73-50-73c-40 0-46 35-46 75s5 74 45 74" id="ao"/><path fill="#333" d="M84 4C-5 8 30-112 23-190h32v120c0 31 7 50 39 49 72-2 45-101 50-169h31l1 190h-30c-1-10 1-25-2-33-11 22-28 36-60 37" id="ap"/><g id="j"><use transform="matrix(0.06172839506172839,0,0,0.06172839506172839,0,0)" xlink:href="#am"/><use transform="matrix(0.06172839506172839,0,0,0.06172839506172839,14.814814814814813,0)" xlink:href="#an"/><use transform="matrix(0.06172839506172839,0,0,0.06172839506172839,20.98765432098765,0)" xlink:href="#aj"/><use transform="matrix(0.06172839506172839,0,0,0.06172839506172839,33.33333333333333,0)" xlink:href="#ao"/><use transform="matrix(0.06172839506172839,0,0,0.06172839506172839,45.679012345679006,0)" xlink:href="#ap"/><use transform="matrix(0.06172839506172839,0,0,0.06172839506172839,58.02469135802468,0)" xlink:href="#aa"/></g><path fill="#333" d="M30-248c118-7 216 8 213 122C240-48 200 0 122 0H30v-248zM63-27c89 8 146-16 146-99s-60-101-146-95v194" id="aq"/><path fill="#333" d="M101-234c-31-9-42 10-38 44h38v23H63V0H32v-167H5v-23h27c-7-52 17-82 69-68v24" id="ar"/><g id="k"><use transform="matrix(0.06172839506172839,0,0,0.06172839506172839,0,0)" xlink:href="#aq"/><use transform="matrix(0.06172839506172839,0,0,0.06172839506172839,15.987654320987653,0)" xlink:href="#aa"/><use transform="matrix(0.06172839506172839,0,0,0.06172839506172839,28.333333333333332,0)" xlink:href="#ar"/><use transform="matrix(0.06172839506172839,0,0,0.06172839506172839,34.50617283950617,0)" xlink:href="#aa"/><use transform="matrix(0.06172839506172839,0,0,0.06172839506172839,46.85185185185185,0)" xlink:href="#al"/><use transform="matrix(0.06172839506172839,0,0,0.06172839506172839,57.96296296296296,0)" xlink:href="#aj"/></g><path fill="#333" d="M9 0v-24l116-142H16v-24h144v24L44-24h123V0H9" id="as"/><path fill="#333" d="M96-169c-40 0-48 33-48 73s9 75 48 75c24 0 41-14 43-38l32 2c-6 37-31 61-74 61-59 0-76-41-82-99-10-93 101-131 147-64 4 7 5 14 7 22l-32 3c-4-21-16-35-41-35zm3 187c19-1 33 8 33 26 0 31-30 33-64 32V58c18 2 39 4 41-13 1-15-18-13-34-13L87 0h19" id="at"/><path fill="#333" d="M141-36C126-15 110 5 73 4 37 3 15-17 15-53c-1-64 63-63 125-63 3-35-9-54-41-54-24 1-41 7-42 31l-33-3c5-37 33-52 76-52 45 0 72 20 72 64v82c-1 20 7 32 28 27v20c-31 9-61-2-59-35zM48-53c0 20 12 33 32 33 41-3 63-29 60-74-43 2-92-5-92 41zm117-205c-3 23-9 48-36 47-26-1-65-44-74 0H39c4-23 8-48 36-47s64 44 74 0h16" id="au"/><g id="l"><use transform="matrix(0.05,0,0,0.05,0,0)" xlink:href="#ah"/><use transform="matrix(0.05,0,0,0.05,10,0)" xlink:href="#Y"/><use transform="matrix(0.05,0,0,0.05,20,0)" xlink:href="#ai"/><use transform="matrix(0.05,0,0,0.05,29,0)" xlink:href="#aj"/><use transform="matrix(0.05,0,0,0.05,39,0)" xlink:href="#ak"/><use transform="matrix(0.05,0,0,0.05,42.95,0)" xlink:href="#af"/><use transform="matrix(0.05,0,0,0.05,46.900000000000006,0)" xlink:href="#as"/><use transform="matrix(0.05,0,0,0.05,55.900000000000006,0)" xlink:href="#aj"/><use transform="matrix(0.05,0,0,0.05,65.9,0)" xlink:href="#at"/><use transform="matrix(0.05,0,0,0.05,74.9,0)" xlink:href="#au"/><use transform="matrix(0.05,0,0,0.05,84.9,0)" xlink:href="#Y"/></g><g id="m"><use transform="matrix(0.05,0,0,0.05,0,0)" xlink:href="#ah"/><use transform="matrix(0.05,0,0,0.05,10,0)" xlink:href="#Y"/><use transform="matrix(0.05,0,0,0.05,20,0)" xlink:href="#ai"/><use transform="matrix(0.05,0,0,0.05,29,0)" xlink:href="#aj"/><use transform="matrix(0.05,0,0,0.05,39,0)" xlink:href="#ak"/></g><g id="n"><use transform="matrix(0.05,0,0,0.05,0,0)" xlink:href="#ah"/><use transform="matrix(0.05,0,0,0.05,10,0)" xlink:href="#aj"/><use transform="matrix(0.05,0,0,0.05,20,0)" xlink:href="#an"/><use transform="matrix(0.05,0,0,0.05,25,0)" xlink:href="#af"/><use transform="matrix(0.05,0,0,0.05,28.950000000000003,0)" xlink:href="#an"/><use transform="matrix(0.05,0,0,0.05,33.95,0)" xlink:href="#ap"/><use transform="matrix(0.05,0,0,0.05,43.95,0)" xlink:href="#an"/><use transform="matrix(0.05,0,0,0.05,48.95,0)" xlink:href="#aa"/></g><path fill="#333" d="M177-190C167-65 218 103 67 71c-23-6-38-20-44-43l32-5c15 47 100 32 89-28v-30C133-14 115 1 83 1 29 1 15-40 15-95c0-56 16-97 71-98 29-1 48 16 59 35 1-10 0-23 2-32h30zM94-22c36 0 50-32 50-73 0-42-14-75-50-75-39 0-46 34-46 75s6 73 46 73" id="av"/><path fill="#333" d="M85-194c31 0 48 13 60 33l-1-100h32l1 261h-30c-2-10 0-23-3-31C134-8 116 4 85 4 32 4 16-35 15-94c0-66 23-100 70-100zm9 24c-40 0-46 34-46 75 0 40 6 74 45 74 42 0 51-32 51-76 0-42-9-74-50-73" id="aw"/><g id="o"><use transform="matrix(0.05,0,0,0.05,0,0)" xlink:href="#ah"/><use transform="matrix(0.05,0,0,0.05,10,0)" xlink:href="#Y"/><use transform="matrix(0.05,0,0,0.05,20,0)" xlink:href="#ac"/><use transform="matrix(0.05,0,0,0.05,30,0)" xlink:href="#av"/><use transform="matrix(0.05,0,0,0.05,40,0)" xlink:href="#af"/><use transform="matrix(0.05,0,0,0.05,43.95,0)" xlink:href="#an"/><use transform="matrix(0.05,0,0,0.05,48.95,0)" xlink:href="#ap"/><use transform="matrix(0.05,0,0,0.05,58.95,0)" xlink:href="#aw"/><use transform="matrix(0.05,0,0,0.05,68.95,0)" xlink:href="#aa"/></g><path fill="#333" d="M30 0v-248h187v28H63v79h144v27H63v87h162V0H30" id="ax"/><path fill="#333" d="M108 0H70L1-190h34L89-25l56-165h34" id="ay"/><g id="p"><use transform="matrix(0.05,0,0,0.05,0,0)" xlink:href="#ax"/><use transform="matrix(0.05,0,0,0.05,12,0)" xlink:href="#ay"/><use transform="matrix(0.05,0,0,0.05,21,0)" xlink:href="#Y"/><use transform="matrix(0.05,0,0,0.05,31,0)" xlink:href="#ak"/><use transform="matrix(0.05,0,0,0.05,34.95,0)" xlink:href="#ap"/><use transform="matrix(0.05,0,0,0.05,44.95,0)" xlink:href="#at"/><use transform="matrix(0.05,0,0,0.05,53.95,0)" xlink:href="#au"/><use transform="matrix(0.05,0,0,0.05,63.95,0)" xlink:href="#Y"/></g><g id="q"><use transform="matrix(0.05,0,0,0.05,0,0)" xlink:href="#X"/><use transform="matrix(0.05,0,0,0.05,12,0)" xlink:href="#Y"/><use transform="matrix(0.05,0,0,0.05,22,0)" xlink:href="#Z"/><use transform="matrix(0.05,0,0,0.05,31,0)" xlink:href="#aa"/><use transform="matrix(0.05,0,0,0.05,41,0)" xlink:href="#ab"/><use transform="matrix(0.05,0,0,0.05,55.95,0)" xlink:href="#Y"/><use transform="matrix(0.05,0,0,0.05,65.95,0)" xlink:href="#ac"/></g><use transform="matrix(0.05,0,0,0.05,0,0)" xlink:href="#ac" id="r"/><path fill="#333" d="M16-82v-28h88v28H16" id="az"/><path fill="#333" d="M18-27v-27l151-64-151-65v-27l175 74v36" id="aA"/><g id="s"><use transform="matrix(0.05,0,0,0.05,0,0)" xlink:href="#az"/><use transform="matrix(0.05,0,0,0.05,5.95,0)" xlink:href="#aA"/></g><use transform="matrix(0.05,0,0,0.05,0,0)" xlink:href="#ac" id="t"/><path fill="#333" d="M27 0v-27h64v-190l-56 39v-29l58-41h29v221h61V0H27" id="aB"/><use transform="matrix(0.05,0,0,0.05,0,0)" xlink:href="#aB" id="u"/><use transform="matrix(0.05,0,0,0.05,0,0)" xlink:href="#aB" id="v"/><g id="w"><use transform="matrix(0.05,0,0,0.05,0,0)" xlink:href="#ae"/><use transform="matrix(0.05,0,0,0.05,10.3,0)" xlink:href="#af"/><use transform="matrix(0.05,0,0,0.05,14.25,0)" xlink:href="#ag"/><use transform="matrix(0.05,0,0,0.05,24.25,0)" xlink:href="#Y"/></g><g id="x"><use transform="matrix(0.05,0,0,0.05,0,0)" xlink:href="#ad"/><use transform="matrix(0.05,0,0,0.05,12.950000000000001,0)" xlink:href="#Y"/><use transform="matrix(0.05,0,0,0.05,22.950000000000003,0)" xlink:href="#ab"/><use transform="matrix(0.05,0,0,0.05,37.900000000000006,0)" xlink:href="#aa"/></g><path fill="#333" d="M18-100v-36l175-74v27L42-118l151 64v27" id="aC"/><g id="y"><use transform="matrix(0.05,0,0,0.05,0,0)" xlink:href="#aC"/><use transform="matrix(0.05,0,0,0.05,10.5,0)" xlink:href="#az"/></g></defs></g></svg>